<?xml version="1.0" ?><svg id="Layer_1" style="enable-background:new 0 0 512 512;" version="1.1" viewBox="0 0 512 512" xml:space="preserve" xmlns="http://www.w3.org/2000/svg" xmlns:xlink="http://www.w3.org/1999/xlink"><g><path d="M160.6,360.7H150v47.6h10.6c5.2,0,9.3-1.8,12.4-5.3c3.1-3.5,4.6-8.1,4.6-13.6v-10c0-5.5-1.5-10-4.6-13.5   C170,362.5,165.9,360.7,160.6,360.7z" id="XMLID_16_"/><path d="M103.1,360.7H89.1v22.9h14.1c4,0,7-1.1,9.1-3.2c2-2.1,3-4.9,3-8.2c0-3.3-1-6.1-3-8.3   C110.2,361.8,107.1,360.7,103.1,360.7z" id="XMLID_15_"/><path d="M257.7,384.5l65.6-57.4H51.6v114.9h271.8L257.7,384.5z M120,386.8c-4.1,3.7-9.7,5.5-16.9,5.5H89.1V417H78.2v-65h24.9   c7.2,0,12.8,1.9,16.9,5.6c4.1,3.7,6.1,8.6,6.1,14.6C126.1,378.3,124,383.2,120,386.8z M188.5,389.4c0,8.1-2.6,14.7-7.7,19.9   c-5.2,5.1-11.9,7.7-20.1,7.7h-21.5v-65h21.5c8.2,0,14.9,2.6,20.1,7.7c5.2,5.1,7.7,11.8,7.7,19.9V389.4z M244.8,360.7H214v19.9h26.2   v8.7H214V417h-10.8v-65h41.6V360.7z"/><path d="M455.8,117.2h-27.9v-54h-63.1v54H337c-4,0-6.1,4.2-3.4,6.8l59.4,68.9c1.8,1.8,5,1.8,6.8,0l59.4-68.9   C461.9,121.3,459.8,117.2,455.8,117.2z" id="XMLID_10_"/><rect height="24.5" id="XMLID_9_" width="63.1" x="364.8" y="28.9"/><path d="M389.5,206v259.4c0,15.1-12.2,27.3-27.3,27.3H99.6c-15.1,0-27.3-12.2-27.3-27.3v-14.6H58.9v20   c0,19.5,15.8,35.4,35.4,35.4h273.2c19.5,0,35.4-15.8,35.4-35.4V206.1c-2,0.8-4.2,1.2-6.5,1.2C394,207.3,391.6,206.8,389.5,206z" id="XMLID_8_"/><path d="M72.3,81.1c0-15.1,12.2-27.3,27.3-27.3h252.1V50v-9.5H94.3c-19.5,0-35.4,15.8-35.4,35.4v242.5h13.4V81.1z" id="XMLID_7_"/><path d="M323.2,132H112.3v19.4h227.7l-16.1-18.6C323.6,132.6,323.4,132.3,323.2,132z" id="XMLID_6_"/><rect height="19.4" id="XMLID_5_" width="237.2" x="112.3" y="163.5"/><rect height="19.4" id="XMLID_4_" width="237.2" x="112.3" y="195"/><rect height="19.4" id="XMLID_3_" width="237.2" x="112.3" y="226.6"/><rect height="19.4" id="XMLID_2_" width="185.8" x="112.3" y="258.1"/><path d="M427.9,10.1c0-2.2-2-4.1-4.6-4.1h-54c-2.5,0-4.6,1.8-4.6,4.1v9h63.1V10.1z" id="XMLID_1_"/></g></svg>